<?xml version="1.0" encoding="UTF-8" standalone="no"?>
<!-- Generated by IcoMoon.io -->

<svg
   xmlns:dc="http://purl.org/dc/elements/1.1/"
   xmlns:cc="http://creativecommons.org/ns#"
   xmlns:rdf="http://www.w3.org/1999/02/22-rdf-syntax-ns#"
   xmlns:svg="http://www.w3.org/2000/svg"
   xmlns="http://www.w3.org/2000/svg"
   xmlns:sodipodi="http://sodipodi.sourceforge.net/DTD/sodipodi-0.dtd"
   xmlns:inkscape="http://www.inkscape.org/namespaces/inkscape"
   version="1.1"
   width="32"
   height="32"
   viewBox="0 0 32 32"
   id="svg4310"
   inkscape:version="0.91 r13725"
   sodipodi:docname="ev_abk_klaeranlage.svg">
  <metadata
     id="metadata4322">
    <rdf:RDF>
      <cc:Work
         rdf:about="">
        <dc:format>image/svg+xml</dc:format>
        <dc:type
           rdf:resource="http://purl.org/dc/dcmitype/StillImage" />
        <dc:title></dc:title>
      </cc:Work>
    </rdf:RDF>
  </metadata>
  <defs
     id="defs4320" />
  <sodipodi:namedview
     pagecolor="#ffffff"
     bordercolor="#666666"
     borderopacity="1"
     objecttolerance="10"
     gridtolerance="10"
     guidetolerance="10"
     inkscape:pageopacity="0"
     inkscape:pageshadow="2"
     inkscape:window-width="831"
     inkscape:window-height="579"
     id="namedview4318"
     showgrid="false"
     inkscape:zoom="11.6875"
     inkscape:cx="16"
     inkscape:cy="16"
     inkscape:window-x="0"
     inkscape:window-y="0"
     inkscape:window-maximized="0"
     inkscape:current-layer="svg4310" />
  <g
     id="g4312" />
  <g
     id="g4867"
     transform="matrix(1.2189926,0,0,1.2189821,0.22596097,0.56805401)">
    <path
       fill="param(fill)" stroke="param(outline)" stroke-width="0.82035303"
       inkscape:connector-curvature="0"
       id="path4314"
       d="m 14.078,0.141 q 0.75,0 2.531,0.5 2.172,0.609 5,2.859 1.422,1.141 2.609,3.469 0.703,1.469 1.063,2.969 0.25,1.25 0.25,1.719 l 0,2 q 0,0.75 -0.5,2.547 -0.609,2.172 -2.859,5 -1.141,1.469 -3.453,2.609 -1.469,0.75 -2.969,1.078 -1.25,0.281 -1.672,0.281 l -2.047,0 q -0.75,0 -2.531,-0.5 Q 7.328,24.063 4.5,21.813 3.031,20.672 1.891,18.344 1.141,16.875 0.828,15.375 0.531,14.094 0.531,13.656 l 0,-2 q 0,-0.781 0.5,-2.578 Q 1.64,6.906 3.89,4.078 5.078,2.64 7.39,1.469 8.828,0.75 10.328,0.422 11.609,0.141 12.031,0.141 l 2.047,0 z" />
    <g
       id="g4864">
      <path
         d="m 23,7.328 -20.591,0 Q 1.831,8.453 1.315,9.953 l 23.4,0 Q 24.418,8.39 23.699,7.328 Z"
         id="path4316"
         inkscape:connector-curvature="0"
         style="fill:#ffffff" />
    </g>
  </g>
</svg>
